<?xml version="1.0" encoding="UTF-8"?>
<svg width="1304px" height="1556px" viewBox="0 0 1304 1556" version="1.1" xmlns="http://www.w3.org/2000/svg" xmlns:xlink="http://www.w3.org/1999/xlink">
    <!-- Generator: Sketch 43.2 (39069) - http://www.bohemiancoding.com/sketch -->
    <title>onsenIcon</title>
    <desc>Created with Sketch.</desc>
    <defs></defs>
    <g id="Page-1" stroke="none" stroke-width="1" fill="none" fill-rule="evenodd">
        <g id="onsenIcon">
            <g id="icon">
                <g id="iconmonstr-location-1-copy" transform="translate(354.124615, 0.787442)" fill-rule="nonzero" fill="#000000">
                    <path d="M196.992286,0 C75.3247074,0 0,98.8454012 0,220.811854 C0,342.749261 196.992286,764.463236 196.992286,1324.52257 C202.213226,762.691726 393.984572,342.749261 393.984572,220.811854 C393.984572,98.8454012 318.688847,0 196.992286,0 Z M196.992286,319.512023 C148.968661,319.512023 110.045469,280.502509 110.045469,232.37238 C110.045469,184.242251 148.968661,145.232738 196.992286,145.232738 C245.015911,145.232738 283.939102,184.242251 283.939102,232.37238 C283.939102,280.502509 245.015911,319.512023 196.992286,319.512023 Z" id="Shape"></path>
                </g>
                <path d="M619.5,178 C891,110.5 1197.5,310 1210,611 C1222.5,912 998,1074.5 806.5,1117.5 C615,1160.5 354.5,1051 281.5,799 C507.5,1252 1072.5,1042.5 1066.5,637.5 C1060.5,232.5 638,223 619.5,237.5 C619.5,217.5 594,202 619.5,178 Z" id="Path-7" fill="#000000"></path>
                <path d="M619,179.892262 C635,166.892262 700,156.892262 743,160.892262" id="Path-2" stroke="#FFFFFF" stroke-width="9"></path>
                <path d="M551.116901,320.299465 C503.093276,320.299465 464.170084,281.289951 464.170084,233.159822 C464.170084,185.029693 503.093276,146.02018 551.116901,146.02018 C599.140526,146.02018 638.063717,185.029693 638.063717,233.159822 C638.063717,281.289951 599.140526,320.299465 551.116901,320.299465 Z" id="Path-Copy" fill="#FFFFFF"></path>
                <ellipse id="Oval-Copy-11" fill="#000000" cx="290.082483" cy="819.070803" rx="38.8318878" ry="38.8207121"></ellipse>
                <ellipse id="Oval-Copy-10" fill="#000000" cx="1119.5076" cy="591.594218" rx="183.643795" ry="183.590943"></ellipse>
                <path d="M242.553763,94.898256 C242.553763,117.554563 242.553763,143.696456 242.553763,180.295106 C191.99822,208.179791 29.8718254,337.146462 0.235817807,466.113133 C0.235817807,401.629798 12.4388798,316.232948 29.8718254,283.119884 C85.6572516,180.295106 179.795158,121.040149 242.553763,94.898256 Z" id="Path-2-Copy" fill="#000000"></path>
                <path d="M242.553763,225.60772 C242.553763,250.00682 242.553763,276.148712 242.553763,300.547812 C185.025042,333.660876 54.2779494,548.024397 33.3584146,650.849175 C17.6687635,609.022147 5.46570151,565.452326 5.46570151,539.310433 C24.6419417,455.656376 124.009732,281.377091 242.553763,225.60772 Z" id="Path-3-Copy" fill="#000000"></path>
                <path d="M244.297057,347.603219 C242.553763,373.745112 244.297057,403.37259 244.297057,429.514483 C219.890933,460.884755 134.469499,614.250525 139.699383,819.900082 C110.063375,792.015396 66.4810113,727.532061 54.2779494,696.161789 C80.4273679,595.079804 127.496321,460.884755 244.297057,347.603219 Z" id="Path-4-Copy" fill="#000000"></path>
                <path d="M251.270235,1170.20144 C90.8871353,1286.96857 134.469499,1468.21902 544.143722,1473.4474 C953.817946,1478.67578 999.143604,1279.99739 835.273915,1170.20144 C1105.48457,1279.99739 938.496997,1559.40503 545.887017,1555.35866 C153.277037,1551.3123 -34.6300735,1286.96857 251.270235,1170.20144 Z" id="Path-6" fill="#000000"></path>
                <path d="M637.5,250.5 C637.5,243 638,226 638,218.5 C638,211 737.5,225.5 745,226.5 C752.5,227.5 744,253.5 742,263.5 C740,273.5 637.5,258 637.5,250.5 Z" id="Path-8" fill="#000000"></path>
                <polygon id="Path-9" fill="#000000" points="530.5 998.5 535.5 1056 567 1061.5 573.5 996.5"></polygon>
            </g>
        </g>
    </g>
</svg>