<?xml version="1.0" encoding="UTF-8"?>
<svg width="54px" height="64px" viewBox="0 0 54 64" version="1.1" xmlns="http://www.w3.org/2000/svg" xmlns:xlink="http://www.w3.org/1999/xlink">
    <!-- Generator: Sketch 43.2 (39069) - http://www.bohemiancoding.com/sketch -->
    <title>onsenIconMarker</title>
    <desc>Created with Sketch.</desc>
    <defs></defs>
    <g id="Page-1" stroke="none" stroke-width="1" fill="none" fill-rule="evenodd">
        <g id="onsenIconMarker" fill-rule="nonzero">
            <g id="iconmonstr-location-1-copy" transform="translate(14.565536, 0.032388)" fill="#DB4437">
                <path d="M8.10251048,0 C3.09818848,0 0,4.06562062 0,9.08223564 C0,14.097656 8.10251048,31.443218 8.10251048,54.4790774 C8.31725352,31.3703538 16.205021,14.097656 16.205021,9.08223564 C16.205021,4.06562062 13.1080246,0 8.10251048,0 Z M8.10251048,13.1418827 C6.1272457,13.1418827 4.52629178,11.5373783 4.52629178,9.55773286 C4.52629178,7.57808744 6.1272457,5.97358306 8.10251048,5.97358306 C10.0777753,5.97358306 11.6787291,7.57808744 11.6787291,9.55773286 C11.6787291,11.5373783 10.0777753,13.1418827 8.10251048,13.1418827 Z" id="Shape"></path>
            </g>
            <path d="M25.4807198,7.32133676 C36.647815,4.54498714 49.2544988,12.7506427 49.7686376,25.1311054 C50.2827764,37.5115682 41.0488432,44.1953728 33.1722366,45.9640102 C25.2956298,47.7326478 14.5809769,43.2287918 11.5784062,32.8637532 C20.874036,51.496144 44.1131106,42.8791774 43.866324,26.2210796 C43.6195372,9.562982 26.2416452,9.1722365 25.4807198,9.76863754 C25.4807198,8.94601542 24.4318766,8.3084833 25.4807198,7.32133676 Z" id="Path-7" fill="#DB4437"></path>
            <path d="M22.6680474,13.1742711 C20.6927826,13.1742711 19.0918286,11.5697666 19.0918286,9.59012122 C19.0918286,7.6104758 20.6927826,6.00597142 22.6680474,6.00597142 C24.6433122,6.00597142 26.244266,7.6104758 26.244266,9.59012122 C26.244266,11.5697666 24.6433122,13.1742711 22.6680474,13.1742711 Z" id="Path-Copy" fill="#FFFFFF"></path>
            <circle id="Oval-Copy-11" fill="#DB4437" cx="12.3427242" cy="34.1005986" r="2"></circle>
            <ellipse id="Oval-Copy-10" fill="#DB4437" cx="46.046585" cy="24.3329242" rx="7.55347228" ry="7.55129842"></ellipse>
            <path d="M9.9765044,3.90327016 L9.9765044,7.415737 C7.89709902,8.56266492 1.2286612,13.8672067 0.00969944708,19.1717484 C0.00969944708,16.5194776 0.511624876,13.0070107 1.2286612,11.6450338 C3.52317744,7.415737 7.3951736,4.97851512 9.9765044,3.90327016 Z" id="Path-2-Copy" fill="#DB4437"></path>
            <path d="M9.9765044,9.27949492 L9.9765044,12.3618637 C7.6102845,13.7238407 2.23251206,22.5408492 1.37206847,26.770146 C0.726735774,25.0497542 0.224810344,23.2576792 0.224810344,22.1824342 C1.0135503,18.7416504 5.10065736,11.5733508 9.9765044,9.27949492 Z" id="Path-3-Copy" fill="#DB4437"></path>
            <path d="M10.048208,14.2973046 C9.9765044,15.3725496 10.048208,16.5911605 10.048208,17.6664055 C9.04435714,18.9566994 5.53087914,25.264803 5.74599004,33.7233966 C4.52702828,32.5764688 2.73443748,29.9241978 2.23251206,28.633904 C3.30806654,24.4762902 5.24406462,18.9566994 10.048208,14.2973046 Z" id="Path-4-Copy" fill="#DB4437"></path>
            <path d="M10.3350225,48.1316788 C3.73828834,52.9344398 5.53087914,60.3894712 22.3812328,60.6045204 C39.2315864,60.8195694 41.0958808,52.6477076 34.3557394,48.1316788 C45.4698024,52.6477076 38.6014188,64.1400526 22.4529364,63.973621 C6.30445396,63.8071898 -1.4243732,52.9344398 10.3350225,48.1316788 Z" id="Path-6" fill="#DB4437"></path>
            <path d="M26.2210796,10.3033419 C26.2210796,9.99485862 26.2416452,9.29562982 26.2416452,8.98714652 C26.2416452,8.67866324 30.3341902,9.27506426 30.6426736,9.31619538 C30.9511568,9.35732648 30.6015424,10.4267352 30.5192802,10.8380463 C30.437018,11.2493573 26.2210796,10.6118252 26.2210796,10.3033419 Z" id="Path-8" fill="#DB4437"></path>
            <polygon id="Path-9" fill="#DB4437" points="21.8200514 41.0694088 22.025707 43.4344474 23.3213368 43.6606684 23.588689 40.9871466"></polygon>
        </g>
    </g>
</svg>